<svg width="28" height="28" viewBox="0 0 28 28" fill="none" xmlns="http://www.w3.org/2000/svg">
<path d="M18.6667 24.5V22.1667C18.6667 20.929 18.175 19.742 17.2998 18.8668C16.4247 17.9917 15.2377 17.5 14 17.5H7C5.76232 17.5 4.57533 17.9917 3.70016 18.8668C2.82499 19.742 2.33333 20.929 2.33333 22.1667V24.5" stroke="#155DFC" stroke-width="2.33333" stroke-linecap="round" stroke-linejoin="round"/>
<path d="M18.6667 3.64917C19.6674 3.9086 20.5536 4.49298 21.1863 5.31058C21.819 6.12817 22.1622 7.13271 22.1622 8.1665C22.1622 9.2003 21.819 10.2048 21.1863 11.0224C20.5536 11.84 19.6674 12.4244 18.6667 12.6838" stroke="#155DFC" stroke-width="2.33333" stroke-linecap="round" stroke-linejoin="round"/>
<path d="M25.6667 24.4999V22.1666C25.6659 21.1326 25.3218 20.1282 24.6883 19.311C24.0548 18.4938 23.1678 17.9101 22.1667 17.6516" stroke="#155DFC" stroke-width="2.33333" stroke-linecap="round" stroke-linejoin="round"/>
<path d="M10.5 12.8333C13.0773 12.8333 15.1667 10.744 15.1667 8.16667C15.1667 5.58934 13.0773 3.5 10.5 3.5C7.92267 3.5 5.83333 5.58934 5.83333 8.16667C5.83333 10.744 7.92267 12.8333 10.5 12.8333Z" stroke="#155DFC" stroke-width="2.33333" stroke-linecap="round" stroke-linejoin="round"/>
</svg>
