<svg width="64" height="64" viewBox="0 0 64 64" fill="none" xmlns="http://www.w3.org/2000/svg">
<path d="M8.00006 29.3333H16.0001C17.4145 29.3333 18.7711 29.8952 19.7713 30.8954C20.7715 31.8956 21.3334 33.2522 21.3334 34.6666V42.6666C21.3334 44.0811 20.7715 45.4377 19.7713 46.4379C18.7711 47.4381 17.4145 48 16.0001 48H13.3334C11.9189 48 10.5624 47.4381 9.56216 46.4379C8.56196 45.4377 8.00006 44.0811 8.00006 42.6666V29.3333ZM8.00006 29.3333C8.00006 26.1816 8.62084 23.0607 9.82695 20.1489C11.0331 17.2371 12.8009 14.5914 15.0295 12.3627C17.2581 10.1341 19.9038 8.36632 22.8157 7.1602C25.7275 5.95409 28.8483 5.33331 32.0001 5.33331C35.1518 5.33331 38.2727 5.95409 41.1845 7.1602C44.0963 8.36632 46.742 10.1341 48.9706 12.3627C51.1992 14.5914 52.9671 17.2371 54.1732 20.1489C55.3793 23.0607 56.0001 26.1816 56.0001 29.3333M56.0001 29.3333V42.6666C56.0001 44.0811 55.4382 45.4377 54.438 46.4379C53.4378 47.4381 52.0812 48 50.6667 48H48.0001C46.5856 48 45.229 47.4381 44.2288 46.4379C43.2286 45.4377 42.6667 44.0811 42.6667 42.6666V34.6666C42.6667 33.2522 43.2286 31.8956 44.2288 30.8954C45.229 29.8952 46.5856 29.3333 48.0001 29.3333H56.0001Z" stroke="white" stroke-width="5.33333" stroke-linecap="round" stroke-linejoin="round"/>
<path d="M56.0002 42.6667V48C56.0002 50.829 54.8764 53.5421 52.876 55.5425C50.8756 57.5429 48.1625 58.6667 45.3335 58.6667H32.0002" stroke="white" stroke-width="5.33333" stroke-linecap="round" stroke-linejoin="round"/>
</svg>
