<svg width="28" height="28" viewBox="0 0 28 28" fill="none" xmlns="http://www.w3.org/2000/svg">
<path d="M14 25.6666C10.9058 25.6666 7.93833 24.4374 5.7504 22.2495C3.56248 20.0616 2.33331 17.0941 2.33331 13.9999C2.33331 10.9057 3.56248 7.93826 5.7504 5.75034C7.93833 3.56242 10.9058 2.33325 14 2.33325C17.0942 2.33325 20.0616 3.4395 22.2496 5.40863C24.4375 7.37776 25.6666 10.0485 25.6666 12.8333C25.6666 14.3803 25.0521 15.8641 23.9581 16.958C22.8641 18.052 21.3804 18.6666 19.8333 18.6666H17.2083C16.8292 18.6666 16.4575 18.7722 16.1349 18.9715C15.8124 19.1708 15.5518 19.4561 15.3822 19.7952C15.2126 20.1343 15.1408 20.514 15.1749 20.8916C15.2089 21.2692 15.3475 21.6299 15.575 21.9333L15.925 22.3999C16.1525 22.7033 16.291 23.0639 16.3251 23.4416C16.3591 23.8192 16.2873 24.1988 16.1178 24.538C15.9482 24.8771 15.6875 25.1623 15.365 25.3617C15.0425 25.561 14.6708 25.6666 14.2916 25.6666H14Z" stroke="white" stroke-width="2.33333" stroke-linecap="round" stroke-linejoin="round"/>
<path d="M15.75 8.16667C16.0722 8.16667 16.3334 7.9055 16.3334 7.58333C16.3334 7.26117 16.0722 7 15.75 7C15.4279 7 15.1667 7.26117 15.1667 7.58333C15.1667 7.9055 15.4279 8.16667 15.75 8.16667Z" fill="white" stroke="white" stroke-width="2.33333" stroke-linecap="round" stroke-linejoin="round"/>
<path d="M20.4166 12.8334C20.7388 12.8334 21 12.5722 21 12.2501C21 11.9279 20.7388 11.6667 20.4166 11.6667C20.0945 11.6667 19.8333 11.9279 19.8333 12.2501C19.8333 12.5722 20.0945 12.8334 20.4166 12.8334Z" fill="white" stroke="white" stroke-width="2.33333" stroke-linecap="round" stroke-linejoin="round"/>
<path d="M7.58333 15.1667C7.9055 15.1667 8.16667 14.9055 8.16667 14.5833C8.16667 14.2612 7.9055 14 7.58333 14C7.26117 14 7 14.2612 7 14.5833C7 14.9055 7.26117 15.1667 7.58333 15.1667Z" fill="white" stroke="white" stroke-width="2.33333" stroke-linecap="round" stroke-linejoin="round"/>
<path d="M9.91665 9.33341C10.2388 9.33341 10.5 9.07225 10.5 8.75008C10.5 8.42792 10.2388 8.16675 9.91665 8.16675C9.59448 8.16675 9.33331 8.42792 9.33331 8.75008C9.33331 9.07225 9.59448 9.33341 9.91665 9.33341Z" fill="white" stroke="white" stroke-width="2.33333" stroke-linecap="round" stroke-linejoin="round"/>
</svg>
