<svg width="59" height="59" viewBox="0 0 59 59" fill="none" xmlns="http://www.w3.org/2000/svg">
<path d="M26.7184 4.84374C26.8327 4.23201 27.1573 3.67951 27.636 3.28192C28.1147 2.88433 28.7174 2.66669 29.3397 2.66669C29.962 2.66669 30.5648 2.88433 31.0435 3.28192C31.5222 3.67951 31.8468 4.23201 31.9611 4.84374L34.7637 19.6651C34.9628 20.7188 35.4749 21.6881 36.2332 22.4463C36.9914 23.2046 37.9607 23.7167 39.0144 23.9157L53.8357 26.7184C54.4475 26.8327 55 27.1573 55.3976 27.636C55.7951 28.1147 56.0128 28.7174 56.0128 29.3397C56.0128 29.962 55.7951 30.5648 55.3976 31.0435C55 31.5222 54.4475 31.8468 53.8357 31.9611L39.0144 34.7637C37.9607 34.9628 36.9914 35.4749 36.2332 36.2332C35.4749 36.9914 34.9628 37.9607 34.7637 39.0144L31.9611 53.8357C31.8468 54.4475 31.5222 55 31.0435 55.3976C30.5648 55.7951 29.962 56.0128 29.3397 56.0128C28.7174 56.0128 28.1147 55.7951 27.636 55.3976C27.1573 55 26.8327 54.4475 26.7184 53.8357L23.9157 39.0144C23.7167 37.9607 23.2046 36.9914 22.4463 36.2332C21.6881 35.4749 20.7188 34.9628 19.6651 34.7637L4.84374 31.9611C4.23201 31.8468 3.67951 31.5222 3.28192 31.0435C2.88433 30.5648 2.66669 29.962 2.66669 29.3397C2.66669 28.7174 2.88433 28.1147 3.28192 27.636C3.67951 27.1573 4.23201 26.8327 4.84374 26.7184L19.6651 23.9157C20.7188 23.7167 21.6881 23.2046 22.4463 22.4463C23.2046 21.6881 23.7167 20.7188 23.9157 19.6651L26.7184 4.84374Z" stroke="white" stroke-width="5.33333" stroke-linecap="round" stroke-linejoin="round"/>
</svg>
