<svg width="20" height="20" viewBox="0 0 20 20" fill="none" xmlns="http://www.w3.org/2000/svg">
<path d="M3.33333 11.6667C3.17564 11.6673 3.02103 11.623 2.88746 11.5392C2.7539 11.4554 2.64686 11.3354 2.57879 11.1931C2.51072 11.0509 2.48441 10.8922 2.50292 10.7356C2.52142 10.579 2.58398 10.4309 2.68333 10.3084L10.9333 1.80839C10.9952 1.73696 11.0795 1.68868 11.1725 1.6715C11.2654 1.65431 11.3614 1.66923 11.4448 1.71381C11.5281 1.75838 11.5938 1.82997 11.6311 1.91681C11.6684 2.00365 11.6751 2.10059 11.65 2.19172L10.05 7.20839C10.0028 7.33466 9.98698 7.47049 10.0038 7.60423C10.0207 7.73797 10.0697 7.86562 10.1467 7.97624C10.2238 8.08686 10.3265 8.17715 10.4461 8.23935C10.5656 8.30156 10.6985 8.33383 10.8333 8.33339H16.6667C16.8244 8.33285 16.979 8.37707 17.1125 8.46091C17.2461 8.54474 17.3531 8.66476 17.4212 8.80701C17.4893 8.94926 17.5156 9.1079 17.4971 9.26451C17.4786 9.42111 17.416 9.56926 17.3167 9.69172L9.06667 18.1917C9.00478 18.2632 8.92045 18.3114 8.82752 18.3286C8.73458 18.3458 8.63856 18.3309 8.55522 18.2863C8.47189 18.2417 8.40618 18.1701 8.36889 18.0833C8.3316 17.9965 8.32494 17.8995 8.35 17.8084L9.95 12.7917C9.99718 12.6655 10.013 12.5296 9.99617 12.3959C9.97932 12.2621 9.93028 12.1345 9.85326 12.0239C9.77623 11.9132 9.67352 11.823 9.55394 11.7608C9.43435 11.6985 9.30146 11.6663 9.16667 11.6667H3.33333Z" stroke="#F6339A" stroke-width="1.66667" stroke-linecap="round" stroke-linejoin="round"/>
</svg>
