<svg width="28" height="28" viewBox="0 0 28 28" fill="none" xmlns="http://www.w3.org/2000/svg">
<path d="M14 20.9999V5.83325" stroke="#E60076" stroke-width="2.33333" stroke-linecap="round" stroke-linejoin="round"/>
<path d="M17.5 15.1667C16.4906 14.8716 15.604 14.2574 14.973 13.4161C14.342 12.5748 14.0006 11.5516 14 10.5C13.9994 11.5516 13.658 12.5748 13.027 13.4161C12.396 14.2574 11.5094 14.8716 10.5 15.1667" stroke="#E60076" stroke-width="2.33333" stroke-linecap="round" stroke-linejoin="round"/>
<path d="M20.531 7.58316C20.7995 7.11823 20.9574 6.59777 20.9925 6.06205C21.0276 5.52634 20.9391 4.98971 20.7336 4.4937C20.5282 3.99769 20.2114 3.55559 19.8077 3.2016C19.4041 2.84761 18.9245 2.59122 18.4059 2.45227C17.8873 2.31332 17.3437 2.29552 16.8172 2.40027C16.2906 2.50501 15.7952 2.72948 15.3693 3.05631C14.9434 3.38315 14.5983 3.80359 14.3609 4.2851C14.1235 4.76661 14 5.29629 14 5.83316C14 5.29629 13.8765 4.76661 13.6391 4.2851C13.4017 3.80359 13.0566 3.38315 12.6307 3.05631C12.2048 2.72948 11.7094 2.50501 11.1828 2.40027C10.6563 2.29552 10.1127 2.31332 9.59412 2.45227C9.07554 2.59122 8.59589 2.84761 8.19225 3.2016C7.78861 3.55559 7.47182 3.99769 7.26639 4.4937C7.06095 4.98971 6.97237 5.52634 7.0075 6.06205C7.04264 6.59777 7.20054 7.11823 7.469 7.58316" stroke="#E60076" stroke-width="2.33333" stroke-linecap="round" stroke-linejoin="round"/>
<path d="M20.9965 5.97925C21.6823 6.15557 22.3189 6.48564 22.8583 6.94445C23.3976 7.40325 23.8254 7.97877 24.1094 8.6274C24.3933 9.27604 24.526 9.98079 24.4972 10.6883C24.4685 11.3958 24.2791 12.0874 23.9435 12.7109" stroke="#E60076" stroke-width="2.33333" stroke-linecap="round" stroke-linejoin="round"/>
<path d="M21 21C22.0273 20.9999 23.0258 20.661 23.8408 20.0356C24.6557 19.4102 25.2416 18.5334 25.5074 17.5412C25.7733 16.5489 25.7044 15.4967 25.3113 14.5476C24.9182 13.5985 24.2229 12.8057 23.3333 12.292" stroke="#E60076" stroke-width="2.33333" stroke-linecap="round" stroke-linejoin="round"/>
<path d="M23.2948 20.3967C23.3766 21.0293 23.3278 21.672 23.1515 22.285C22.9751 22.898 22.675 23.4684 22.2696 23.9608C21.8642 24.4533 21.3621 24.8574 20.7944 25.1483C20.2267 25.4391 19.6054 25.6105 18.9689 25.6518C18.3323 25.6931 17.6941 25.6035 17.0936 25.3884C16.493 25.1734 15.9429 24.8376 15.4773 24.4016C15.0116 23.9657 14.6403 23.4389 14.3862 22.8538C14.1321 22.2687 14.0007 21.6378 14 20.9999C13.9993 21.6378 13.8679 22.2687 13.6138 22.8538C13.3597 23.4389 12.9884 23.9657 12.5227 24.4016C12.0571 24.8376 11.507 25.1734 10.9065 25.3884C10.3059 25.6035 9.66769 25.6931 9.03116 25.6518C8.39462 25.6105 7.77332 25.4391 7.20561 25.1483C6.6379 24.8574 6.13584 24.4533 5.73043 23.9608C5.32503 23.4684 5.02489 22.898 4.84855 22.285C4.67221 21.672 4.62342 21.0293 4.70518 20.3967" stroke="#E60076" stroke-width="2.33333" stroke-linecap="round" stroke-linejoin="round"/>
<path d="M7.00002 21C5.97276 20.9999 4.97423 20.661 4.15926 20.0356C3.3443 19.4102 2.75845 18.5334 2.49258 17.5412C2.2267 16.5489 2.29565 15.4967 2.68874 14.5476C3.08183 13.5985 3.77708 12.8057 4.66669 12.292" stroke="#E60076" stroke-width="2.33333" stroke-linecap="round" stroke-linejoin="round"/>
<path d="M7.00346 5.97925C6.31769 6.15557 5.68104 6.48564 5.14173 6.94445C4.60241 7.40325 4.17457 7.97877 3.89061 8.6274C3.60665 9.27604 3.47401 9.98079 3.50275 10.6883C3.53148 11.3958 3.72083 12.0874 4.05646 12.7109" stroke="#E60076" stroke-width="2.33333" stroke-linecap="round" stroke-linejoin="round"/>
</svg>
