<svg width="64" height="64" viewBox="0 0 64 64" fill="none" xmlns="http://www.w3.org/2000/svg">
<path d="M32 58.6666C46.7276 58.6666 58.6667 46.7276 58.6667 32C58.6667 17.2724 46.7276 5.33331 32 5.33331C17.2724 5.33331 5.33333 17.2724 5.33333 32C5.33333 46.7276 17.2724 58.6666 32 58.6666Z" stroke="white" stroke-width="5.33333" stroke-linecap="round" stroke-linejoin="round"/>
<path d="M32 48C40.8366 48 48 40.8366 48 32C48 23.1634 40.8366 16 32 16C23.1634 16 16 23.1634 16 32C16 40.8366 23.1634 48 32 48Z" stroke="white" stroke-width="5.33333" stroke-linecap="round" stroke-linejoin="round"/>
<path d="M32 37.3334C34.9455 37.3334 37.3333 34.9455 37.3333 32C37.3333 29.0545 34.9455 26.6667 32 26.6667C29.0545 26.6667 26.6667 29.0545 26.6667 32C26.6667 34.9455 29.0545 37.3334 32 37.3334Z" stroke="white" stroke-width="5.33333" stroke-linecap="round" stroke-linejoin="round"/>
</svg>
